<svg width="19" height="19" fill="none" xmlns="http://www.w3.org/2000/svg"><path d="M9.5 19a9.5 9.5 0 100-19 9.5 9.5 0 000 19z" fill="#F16D7F"/><path d="M8.813 7.648c.448-.096.86-.144 1.236-.144.448 0 .844.066 1.188.198s.63.314.858.546c.232.232.406.506.522.822.12.316.18.66.18 1.032 0 .456-.08.868-.24 1.236a2.774 2.774 0 01-1.632 1.548c-.376.14-.782.21-1.218.21a3.31 3.31 0 01-.726-.078 3.663 3.663 0 01-1.212-.486 3.226 3.226 0 01-.456-.342l.33-.456a.33.33 0 01.282-.156c.08 0 .17.032.27.096.1.06.222.128.366.204.144.076.312.146.504.21.196.06.428.09.696.09.3 0 .57-.048.81-.144.24-.096.446-.232.618-.408.172-.18.304-.394.396-.642.092-.248.138-.526.138-.834 0-.268-.04-.51-.12-.726a1.381 1.381 0 00-.354-.552 1.594 1.594 0 00-.588-.354 2.468 2.468 0 00-.828-.126 4.5 4.5 0 00-1.392.228l-.672-.198.69-4.02h4.074v.468a.524.524 0 01-.144.378c-.092.096-.252.144-.48.144h-2.7l-.396 2.256z" fill="#fff"/></svg>