<svg width="19" height="19" viewBox="0 0 19 19" fill="none" xmlns="http://www.w3.org/2000/svg">
<path d="M9.5 19C14.7467 19 19 14.7467 19 9.5C19 4.25329 14.7467 0 9.5 0C4.25329 0 0 4.25329 0 9.5C0 14.7467 4.25329 19 9.5 19Z" fill="#F16D7F"/>
<path d="M8.81263 7.648C9.26063 7.552 9.67263 7.504 10.0486 7.504C10.4966 7.504 10.8926 7.57 11.2366 7.702C11.5806 7.834 11.8666 8.016 12.0946 8.248C12.3266 8.48 12.5006 8.754 12.6166 9.07C12.7366 9.386 12.7966 9.73 12.7966 10.102C12.7966 10.558 12.7166 10.97 12.5566 11.338C12.4006 11.706 12.1826 12.022 11.9026 12.286C11.6266 12.546 11.3006 12.746 10.9246 12.886C10.5486 13.026 10.1426 13.096 9.70663 13.096C9.45463 13.096 9.21263 13.07 8.98063 13.018C8.74863 12.97 8.53063 12.904 8.32663 12.82C8.12663 12.736 7.94063 12.64 7.76863 12.532C7.59663 12.424 7.44463 12.31 7.31263 12.19L7.64263 11.734C7.71463 11.63 7.80863 11.578 7.92463 11.578C8.00463 11.578 8.09463 11.61 8.19463 11.674C8.29463 11.734 8.41663 11.802 8.56063 11.878C8.70463 11.954 8.87263 12.024 9.06463 12.088C9.26063 12.148 9.49263 12.178 9.76063 12.178C10.0606 12.178 10.3306 12.13 10.5706 12.034C10.8106 11.938 11.0166 11.802 11.1886 11.626C11.3606 11.446 11.4926 11.232 11.5846 10.984C11.6766 10.736 11.7226 10.458 11.7226 10.15C11.7226 9.882 11.6826 9.64 11.6026 9.424C11.5266 9.208 11.4086 9.024 11.2486 8.872C11.0926 8.72 10.8966 8.602 10.6606 8.518C10.4246 8.434 10.1486 8.392 9.83263 8.392C9.61663 8.392 9.39063 8.41 9.15463 8.446C8.92263 8.482 8.68463 8.54 8.44063 8.62L7.76863 8.422L8.45863 4.402H12.5326V4.87C12.5326 5.022 12.4846 5.148 12.3886 5.248C12.2966 5.344 12.1366 5.392 11.9086 5.392H9.20863L8.81263 7.648Z" fill="white"/>
</svg>
